<svg xmlns="http://www.w3.org/2000/svg" width="68.008" height="68.008" viewBox="0 0 68.008 68.008"><defs><style>.a{fill:#d5c9c6;}</style></defs><path class="a" d="M28.691,0H39.317A3.18,3.18,0,0,1,42.5,3.188V25.5H54.154a2.652,2.652,0,0,1,1.873,4.529l-20.2,20.216a2.573,2.573,0,0,1-3.626,0L11.968,30.032A2.652,2.652,0,0,1,13.841,25.5H25.5V3.188A3.18,3.18,0,0,1,28.691,0ZM68.008,49.943V64.82a3.18,3.18,0,0,1-3.188,3.188H3.188A3.18,3.18,0,0,1,0,64.82V49.943a3.18,3.18,0,0,1,3.188-3.188H22.674l6.509,6.509a6.806,6.806,0,0,0,9.643,0l6.509-6.509H64.82A3.18,3.18,0,0,1,68.008,49.943ZM51.537,61.632a2.657,2.657,0,1,0-2.657,2.657A2.664,2.664,0,0,0,51.537,61.632Zm8.5,0a2.657,2.657,0,1,0-2.657,2.657A2.664,2.664,0,0,0,60.038,61.632Z"/></svg>